<?xml version="1.0" standalone="no"?>
<!DOCTYPE svg PUBLIC "-//W3C//DTD SVG 20010904//EN"
 "http://www.w3.org/TR/2001/REC-SVG-20010904/DTD/svg10.dtd">
<svg version="1.0" xmlns="http://www.w3.org/2000/svg"
 width="640.000000pt" height="640.000000pt" viewBox="0 0 640.000000 640.000000"
 preserveAspectRatio="xMidYMid meet">

<g transform="translate(0.000000,640.000000) scale(0.100000,-0.100000)"
fill="#000000" stroke="none">
<path d="M4196 4428 c-247 -316 -416 -535 -448 -580 -9 -12 -52 -71 -95 -129
-155 -211 -248 -340 -251 -350 -5 -14 -39 -11 -45 4 -3 7 -65 96 -137 197
-288 400 -254 360 -300 360 -22 0 -40 -5 -40 -11 0 -6 44 -72 99 -147 287
-399 341 -476 341 -490 0 -8 -30 -56 -67 -106 -84 -115 -121 -166 -214 -294
-41 -56 -102 -140 -136 -187 -35 -46 -63 -87 -63 -90 0 -3 20 -5 45 -5 l44 0
69 93 c37 50 85 117 107 147 22 30 42 57 46 60 3 3 28 37 54 75 69 102 168
235 175 235 6 0 61 -74 226 -304 213 -298 216 -301 252 -304 77 -7 79 -12
-120 258 -95 130 -291 407 -295 417 -4 10 94 161 227 348 20 28 177 256 365
530 185 270 254 375 247 375 -4 -1 -42 -46 -86 -102z"/>
<path d="M800 3265 l0 -665 35 0 c19 0 36 5 36 10 1 6 3 15 4 20 1 6 3 274 4
596 1 392 4 583 11 579 6 -4 27 -32 48 -63 21 -31 74 -109 117 -172 43 -63
123 -180 177 -260 55 -80 132 -192 171 -250 40 -58 128 -186 195 -285 130
-190 594 -816 600 -810 3 3 -874 1327 -901 1360 -4 6 -91 135 -192 288 -101
153 -191 287 -201 298 -12 13 -30 19 -61 19 l-43 0 0 -665z"/>
<path d="M1905 3918 c-3 -7 -4 -305 -3 -663 l3 -650 445 0 445 0 3 32 3 33
-408 2 -408 3 0 285 0 285 375 5 375 5 0 35 0 35 -375 5 -375 5 -3 249 c-2
175 1 253 9 262 9 11 84 14 406 14 l394 0 -3 33 -3 32 -438 3 c-345 2 -439 0
-442 -10z"/>
<path d="M3967 3923 c-4 -3 -7 -19 -7 -35 l0 -28 214 0 c118 0 221 -3 230 -6
14 -6 16 -69 16 -618 0 -336 4 -617 9 -624 5 -8 22 -12 42 -10 l34 3 3 615 c1
338 4 621 7 628 3 9 59 12 230 12 l226 0 -3 33 -3 32 -496 3 c-272 1 -499 -1
-502 -5z"/>
<path d="M5328 2974 c-74 -39 -56 -133 28 -148 79 -15 108 -44 78 -77 -23 -25
-78 -25 -104 1 -11 11 -27 20 -35 20 -24 0 -18 -29 11 -55 22 -20 37 -25 78
-25 54 1 75 11 94 47 30 56 3 102 -74 123 -59 16 -74 26 -74 51 0 37 93 48
107 13 6 -15 43 -19 43 -5 0 57 -89 90 -152 55z"/>
<path d="M5177 2973 c-4 -3 -7 -55 -7 -115 0 -106 -1 -109 -25 -120 -21 -10
-29 -8 -48 10 -26 25 -57 29 -57 8 0 -7 9 -25 21 -40 16 -21 29 -26 62 -26 77
1 97 36 97 170 0 49 -3 95 -6 104 -6 16 -26 21 -37 9z"/>
<path d="M4940 2735 c-10 -12 -10 -18 0 -30 17 -21 37 -19 45 5 12 37 -20 55
-45 25z"/>
</g>
</svg>
