<?xml version="1.0" encoding="UTF-8"?>
<svg xmlns="http://www.w3.org/2000/svg" xmlns:xlink="http://www.w3.org/1999/xlink" width="256px" height="256px" viewBox="0 0 256 256" version="1.1">
<g id="surface1">
<path style=" stroke:none;fill-rule:nonzero;fill:rgb(0%,0%,0%);fill-opacity:1;" d="M 167.839844 78.878906 C 157.960938 91.519531 151.199219 100.28125 149.921875 102.078125 C 149.558594 102.558594 147.839844 104.921875 146.121094 107.238281 C 139.921875 115.679688 136.199219 120.839844 136.078125 121.238281 C 135.878906 121.800781 134.519531 121.679688 134.28125 121.078125 C 134.160156 120.800781 131.679688 117.238281 128.800781 113.199219 C 117.28125 97.199219 118.640625 98.800781 116.800781 98.800781 C 115.921875 98.800781 115.199219 99 115.199219 99.238281 C 115.199219 99.480469 116.960938 102.121094 119.160156 105.121094 C 130.640625 121.078125 132.800781 124.160156 132.800781 124.71875 C 132.800781 125.039062 131.601562 126.960938 130.121094 128.960938 C 126.761719 133.558594 125.28125 135.601562 121.558594 140.71875 C 119.921875 142.960938 117.480469 146.320312 116.121094 148.199219 C 114.71875 150.039062 113.601562 151.679688 113.601562 151.800781 C 113.601562 151.921875 114.398438 152 115.398438 152 L 117.160156 152 L 119.921875 148.28125 C 121.398438 146.28125 123.320312 143.601562 124.199219 142.398438 C 125.078125 141.199219 125.878906 140.121094 126.039062 140 C 126.160156 139.878906 127.160156 138.519531 128.199219 137 C 130.960938 132.921875 134.921875 127.601562 135.199219 127.601562 C 135.441406 127.601562 137.640625 130.558594 144.238281 139.761719 C 152.761719 151.679688 152.878906 151.800781 154.320312 151.921875 C 157.398438 152.199219 157.480469 152.398438 149.519531 141.601562 C 145.71875 136.398438 137.878906 125.320312 137.71875 124.921875 C 137.558594 124.519531 141.480469 118.480469 146.800781 111 C 147.601562 109.878906 153.878906 100.761719 161.398438 89.800781 C 168.800781 79 171.558594 74.800781 171.28125 74.800781 C 171.121094 74.839844 169.601562 76.640625 167.839844 78.878906 Z M 167.839844 78.878906 "/>
<path style=" stroke:none;fill-rule:nonzero;fill:rgb(0%,0%,0%);fill-opacity:1;" d="M 32 125.398438 L 32 152 L 33.398438 152 C 34.160156 152 34.839844 151.800781 34.839844 151.601562 C 34.878906 151.359375 34.960938 151 35 150.800781 C 35.039062 150.558594 35.121094 139.839844 35.160156 126.960938 C 35.199219 111.28125 35.320312 103.640625 35.601562 103.800781 C 35.839844 103.960938 36.679688 105.078125 37.519531 106.320312 C 38.359375 107.558594 40.480469 110.679688 42.199219 113.199219 C 43.921875 115.71875 47.121094 120.398438 49.28125 123.601562 C 51.480469 126.800781 54.558594 131.28125 56.121094 133.601562 C 57.71875 135.921875 61.238281 141.039062 63.921875 145 C 69.121094 152.601562 87.679688 177.640625 87.921875 177.398438 C 88.039062 177.28125 52.960938 124.320312 51.878906 123 C 51.71875 122.761719 48.238281 117.601562 44.199219 111.480469 C 40.160156 105.359375 36.558594 100 36.160156 99.558594 C 35.679688 99.039062 34.960938 98.800781 33.71875 98.800781 L 32 98.800781 Z M 32 125.398438 "/>
<path style=" stroke:none;fill-rule:nonzero;fill:rgb(0%,0%,0%);fill-opacity:1;" d="M 76.199219 99.28125 C 76.078125 99.558594 76.039062 111.480469 76.078125 125.800781 L 76.199219 151.800781 L 111.800781 151.800781 L 111.921875 150.519531 L 112.039062 149.199219 L 95.71875 149.121094 L 79.398438 149 L 79.398438 126.199219 L 109.398438 125.800781 L 109.398438 123 L 79.398438 122.601562 L 79.28125 112.640625 C 79.199219 105.640625 79.320312 102.519531 79.640625 102.160156 C 80 101.71875 83 101.601562 95.878906 101.601562 L 111.640625 101.601562 L 111.519531 100.28125 L 111.398438 99 L 93.878906 98.878906 C 80.078125 98.800781 76.320312 98.878906 76.199219 99.28125 Z M 76.199219 99.28125 "/>
<path style=" stroke:none;fill-rule:nonzero;fill:rgb(0%,0%,0%);fill-opacity:1;" d="M 158.679688 99.078125 C 158.519531 99.199219 158.398438 99.839844 158.398438 100.480469 L 158.398438 101.601562 L 166.960938 101.601562 C 171.679688 101.601562 175.800781 101.71875 176.160156 101.839844 C 176.71875 102.078125 176.800781 104.601562 176.800781 126.558594 C 176.800781 140 176.960938 151.238281 177.160156 151.519531 C 177.359375 151.839844 178.039062 152 178.839844 151.921875 L 180.199219 151.800781 L 180.320312 127.199219 C 180.359375 113.679688 180.480469 102.359375 180.601562 102.078125 C 180.71875 101.71875 182.960938 101.601562 189.800781 101.601562 L 198.839844 101.601562 L 198.71875 100.28125 L 198.601562 99 L 178.761719 98.878906 C 167.878906 98.839844 158.800781 98.921875 158.679688 99.078125 Z M 158.679688 99.078125 "/>
<path style=" stroke:none;fill-rule:nonzero;fill:rgb(0%,0%,0%);fill-opacity:1;" d="M 213.121094 137.039062 C 210.160156 138.601562 210.878906 142.359375 214.238281 142.960938 C 217.398438 143.558594 218.558594 144.71875 217.359375 146.039062 C 216.441406 147.039062 214.238281 147.039062 213.199219 146 C 212.761719 145.558594 212.121094 145.199219 211.800781 145.199219 C 210.839844 145.199219 211.078125 146.359375 212.238281 147.398438 C 213.121094 148.199219 213.71875 148.398438 215.359375 148.398438 C 217.519531 148.359375 218.359375 147.960938 219.121094 146.519531 C 220.320312 144.28125 219.238281 142.441406 216.160156 141.601562 C 213.800781 140.960938 213.199219 140.558594 213.199219 139.558594 C 213.199219 138.078125 216.921875 137.640625 217.480469 139.039062 C 217.71875 139.640625 219.199219 139.800781 219.199219 139.238281 C 219.199219 136.960938 215.640625 135.640625 213.121094 137.039062 Z M 213.121094 137.039062 "/>
<path style=" stroke:none;fill-rule:nonzero;fill:rgb(0%,0%,0%);fill-opacity:1;" d="M 207.078125 137.078125 C 206.921875 137.199219 206.800781 139.28125 206.800781 141.679688 C 206.800781 145.921875 206.761719 146.039062 205.800781 146.480469 C 204.960938 146.878906 204.640625 146.800781 203.878906 146.078125 C 202.839844 145.078125 201.601562 144.921875 201.601562 145.761719 C 201.601562 146.039062 201.960938 146.761719 202.441406 147.359375 C 203.078125 148.199219 203.601562 148.398438 204.921875 148.398438 C 208 148.359375 208.800781 146.960938 208.800781 141.601562 C 208.800781 139.640625 208.679688 137.800781 208.558594 137.441406 C 208.320312 136.800781 207.519531 136.601562 207.078125 137.078125 Z M 207.078125 137.078125 "/>
<path style=" stroke:none;fill-rule:nonzero;fill:rgb(0%,0%,0%);fill-opacity:1;" d="M 197.601562 146.601562 C 197.199219 147.078125 197.199219 147.320312 197.601562 147.800781 C 198.28125 148.640625 199.078125 148.558594 199.398438 147.601562 C 199.878906 146.121094 198.601562 145.398438 197.601562 146.601562 Z M 197.601562 146.601562 "/>
</g>
</svg>
