<?xml version="1.0" standalone="no"?>
<!DOCTYPE svg PUBLIC "-//W3C//DTD SVG 20010904//EN"
 "http://www.w3.org/TR/2001/REC-SVG-20010904/DTD/svg10.dtd">
<svg version="1.0" xmlns="http://www.w3.org/2000/svg"
 width="387.000000pt" height="391.000000pt" viewBox="0 0 387.000000 391.000000"
 preserveAspectRatio="xMidYMid meet">

<g transform="translate(0.000000,391.000000) scale(0.100000,-0.100000)"
fill="#000000" stroke="none">
<path d="M2498 2648 c-35 -45 -84 -109 -111 -142 -26 -34 -108 -144 -184 -246
-75 -102 -143 -193 -152 -202 -15 -17 -25 -6 -141 157 -102 144 -128 175 -148
175 -17 0 -23 -4 -18 -15 3 -8 62 -94 131 -190 70 -96 125 -182 123 -190 -2
-8 -65 -100 -140 -204 -76 -104 -138 -192 -138 -195 0 -3 11 -6 24 -6 20 0 38
18 83 81 32 44 93 128 135 186 l76 105 37 -50 c20 -28 58 -81 85 -119 27 -37
71 -98 97 -135 39 -55 53 -67 76 -68 20 0 26 4 21 13 -12 19 -150 213 -221
309 l-64 87 246 357 c279 406 258 374 251 374 -3 0 -33 -37 -68 -82z"/>
<path d="M490 1989 l0 -400 23 3 22 3 3 325 c1 179 3 341 5 360 2 34 6 28 111
-125 292 -428 381 -555 513 -732 79 -106 146 -193 148 -193 7 0 -757 1144
-769 1152 -6 4 -21 8 -33 8 l-23 0 0 -401z"/>
<path d="M1157 2383 c-4 -3 -7 -183 -7 -400 l0 -393 270 0 c263 0 270 0 270
20 0 19 -7 20 -245 20 l-245 0 0 175 0 175 225 0 c218 0 225 1 225 20 0 19 -7
20 -210 21 -115 1 -216 2 -222 3 -10 1 -14 41 -16 158 l-3 158 238 2 238 3 3
23 3 22 -259 0 c-142 0 -262 -3 -265 -7z"/>
<path d="M2390 2365 l0 -25 135 0 135 0 0 -359 c0 -198 3 -366 6 -375 3 -9 15
-16 25 -16 18 0 19 14 19 375 l0 375 141 0 c140 0 140 0 137 23 l-3 22 -297 3
-298 2 0 -25z"/>
<path d="M3117 1813 c-4 -3 -7 -35 -7 -70 0 -49 -4 -65 -16 -70 -8 -3 -20 -1
-27 6 -15 15 -27 14 -27 -4 0 -26 49 -38 76 -20 22 14 24 23 24 90 0 69 -6 86
-23 68z"/>
<path d="M3196 1807 c-11 -8 -17 -22 -14 -37 3 -23 10 -29 63 -52 17 -7 30
-20 30 -28 0 -19 -51 -26 -71 -9 -8 6 -18 9 -22 5 -4 -4 4 -17 17 -27 39 -32
101 -9 101 36 0 27 -18 43 -57 54 -18 5 -28 14 -28 27 0 24 37 31 55 9 14 -17
30 -20 30 -6 0 35 -69 53 -104 28z"/>
<path d="M2977 1673 c-12 -11 -8 -23 8 -23 8 0 15 7 15 15 0 16 -12 20 -23 8z"/>
</g>
</svg>
